<svg version="1.1" id="Layer_1" xmlns="http://www.w3.org/2000/svg" xmlns:xlink="http://www.w3.org/1999/xlink" x="0px" y="0px"
	 width="100%" viewBox="0 0 1334 784" enable-background="new 0 0 1334 784" xml:space="preserve">
<path fill="#FFFFFF" opacity="1.000000" stroke="none" 
	d="
M970.000000,785.000000 
	C646.704712,785.000000 323.909424,785.000000 1.057063,785.000000 
	C1.057063,523.735535 1.057063,262.471008 1.057063,1.103256 
	C445.545441,1.103256 890.090881,1.103256 1334.818115,1.103256 
	C1334.818115,262.333221 1334.818115,523.666626 1334.818115,785.000000 
	C1213.470825,785.000000 1091.985352,785.000000 970.000000,785.000000 
M707.983643,472.798615 
	C695.167725,483.395386 682.351868,493.992157 668.911194,504.834717 
	C656.719727,514.823059 644.528259,524.811401 632.252075,534.869141 
	C633.051636,536.089722 633.438354,536.818359 633.951294,537.443298 
	C663.212036,573.090454 692.495972,608.718567 721.726257,644.390625 
	C723.776978,646.893250 725.993042,648.000916 729.365479,647.993835 
	C783.194763,647.880127 837.024414,647.912292 890.853943,647.892761 
	C892.262207,647.892273 893.670288,647.684143 895.930237,647.505554 
	C893.481079,644.499939 891.565796,642.096069 889.594788,639.738770 
	C861.278320,605.872131 832.976685,571.993103 804.621399,538.158997 
	C792.966614,524.252258 781.192383,510.445587 769.202698,495.968506 
	C765.923706,492.175720 762.644775,488.382904 759.119934,483.960663 
	C750.403259,473.449280 741.686584,462.937897 732.744995,452.155212 
	C724.267883,459.322693 716.443359,465.938416 707.983643,472.798615 
M660.660522,266.754639 
	C666.982483,266.816071 673.317444,267.124634 679.618713,266.792603 
	C681.583313,266.689056 684.122437,265.332489 685.269531,263.737518 
	C697.357849,246.929611 701.433228,228.254318 697.329285,207.934830 
	C692.240601,182.740005 676.576721,165.518234 654.701233,153.721893 
	C645.931396,148.992737 636.079895,146.269501 626.012390,142.289246 
	C618.015869,141.289215 610.024048,139.470444 602.021973,139.423782 
	C554.737061,139.147964 507.449799,139.281631 460.163300,139.291992 
	C458.722046,139.292313 457.280853,139.451279 455.745361,139.541840 
	C455.745361,182.089859 455.745361,224.287750 455.745361,266.632538 
	C457.195557,266.711548 458.339447,266.828064 459.483398,266.828430 
	C524.752075,266.849121 590.020813,266.863068 655.289490,266.854065 
	C656.770752,266.853882 658.251953,266.583893 660.660522,266.754639 
M716.197571,240.840805 
	C714.801575,245.283600 713.637024,249.815384 711.969238,254.153717 
	C704.932800,272.457520 690.986511,285.031891 676.250793,296.966187 
	C647.273804,320.434448 618.313660,343.924011 589.429504,367.506409 
	C545.965515,402.992432 502.539001,438.524811 459.253418,474.227692 
	C457.176270,475.941010 455.513885,479.482422 455.503113,482.179871 
	C455.291656,535.177917 455.347473,588.177124 455.387146,641.176086 
	C455.388519,643.002930 455.785858,644.829590 456.129944,647.783875 
	C465.289764,640.542175 473.540955,634.131409 481.671875,627.571594 
	C521.711792,595.268311 561.721252,562.927124 601.738708,530.596008 
	C637.093445,502.032074 672.454834,473.476288 707.793945,444.893036 
	C735.239441,422.694305 762.653748,400.457092 790.084961,378.240723 
	C801.893433,368.677063 813.273193,358.708344 821.520020,345.697571 
	C833.841858,326.257904 840.163025,305.019196 841.280334,282.052643 
	C842.523071,256.509979 837.640015,232.304993 825.799561,209.679886 
	C812.117798,183.536163 789.636719,167.626953 762.899353,156.893219 
	C741.061768,148.126541 718.130432,144.245178 694.595093,141.543350 
	C686.825317,140.832886 679.068237,139.851654 671.282227,139.488968 
	C663.677734,139.134720 656.043701,139.411926 648.422668,139.411926 
	C650.068420,140.622726 651.765015,141.263763 653.458679,141.912628 
	C672.284546,149.125031 688.709229,159.719910 701.054077,175.964615 
	C714.512695,193.674866 718.693054,213.912231 716.914917,237.102814 
	C716.723694,238.033447 716.532471,238.964066 716.298889,239.844925 
	C716.298889,239.844925 716.353516,239.945724 716.197571,240.840805 
z"/>
<path fill="#F9C90C" opacity="1.000000" stroke="none" 
	d="
M694.928650,141.540298 
	C718.130432,144.245178 741.061768,148.126541 762.899353,156.893219 
	C789.636719,167.626953 812.117798,183.536163 825.799561,209.679886 
	C837.640015,232.304993 842.523071,256.509979 841.280334,282.052643 
	C840.163025,305.019196 833.841858,326.257904 821.520020,345.697571 
	C813.273193,358.708344 801.893433,368.677063 790.084961,378.240723 
	C762.653748,400.457092 735.239441,422.694305 707.793945,444.893036 
	C672.454834,473.476288 637.093445,502.032074 601.738708,530.596008 
	C561.721252,562.927124 521.711792,595.268311 481.671875,627.571594 
	C473.540955,634.131409 465.289764,640.542175 456.129944,647.783875 
	C455.785858,644.829590 455.388519,643.002930 455.387146,641.176086 
	C455.347473,588.177124 455.291656,535.177917 455.503113,482.179871 
	C455.513885,479.482422 457.176270,475.941010 459.253418,474.227692 
	C502.539001,438.524811 545.965515,402.992432 589.429504,367.506409 
	C618.313660,343.924011 647.273804,320.434448 676.250793,296.966187 
	C690.986511,285.031891 704.932800,272.457520 711.969238,254.153717 
	C713.637024,249.815384 714.801575,245.283600 716.277649,240.478485 
	C716.357727,240.116150 716.341248,239.894699 716.341248,239.894699 
	C716.532471,238.964066 716.723694,238.033447 717.229980,236.323303 
	C722.461365,215.103378 721.796265,194.788116 713.522217,175.491501 
	C709.270752,165.576187 702.289124,156.845856 696.762878,147.449661 
	C695.766602,145.755737 691.769775,144.626617 694.928650,141.540298 
z"/>
<path fill="#073279" opacity="1.000000" stroke="none" 
	d="
M659.733215,266.439758 
	C658.251953,266.583893 656.770752,266.853882 655.289490,266.854065 
	C590.020813,266.863068 524.752075,266.849121 459.483398,266.828430 
	C458.339447,266.828064 457.195557,266.711548 455.745361,266.632538 
	C455.745361,224.287750 455.745361,182.089859 455.745361,139.541840 
	C457.280853,139.451279 458.722046,139.292313 460.163300,139.291992 
	C507.449799,139.281631 554.737061,139.147964 602.021973,139.423782 
	C610.024048,139.470444 618.015869,141.289215 626.504150,142.749542 
	C661.936523,163.118439 676.573486,202.897797 668.762512,239.672699 
	C666.819275,248.821609 662.798889,257.529297 659.733215,266.439758 
z"/>
<path fill="#50AAD5" opacity="1.000000" stroke="none" 
	d="
M660.196899,266.597229 
	C662.798889,257.529297 666.819275,248.821609 668.762512,239.672699 
	C676.573486,202.897797 661.936523,163.118439 626.858337,142.921539 
	C636.079895,146.269501 645.931396,148.992737 654.701233,153.721893 
	C676.576721,165.518234 692.240601,182.740005 697.329285,207.934830 
	C701.433228,228.254318 697.357849,246.929611 685.269531,263.737518 
	C684.122437,265.332489 681.583313,266.689056 679.618713,266.792603 
	C673.317444,267.124634 666.982483,266.816071 660.196899,266.597229 
z"/>
<path fill="#5AAAC7" opacity="1.000000" stroke="none" 
	d="
M694.761841,141.541824 
	C691.769775,144.626617 695.766602,145.755737 696.762878,147.449661 
	C702.289124,156.845856 709.270752,165.576187 713.522217,175.491501 
	C721.796265,194.788116 722.461365,215.103378 717.313110,235.614807 
	C718.693054,213.912231 714.512695,193.674866 701.054077,175.964615 
	C688.709229,159.719910 672.284546,149.125031 653.458679,141.912628 
	C651.765015,141.263763 650.068420,140.622726 648.422668,139.411926 
	C656.043701,139.411926 663.677734,139.134720 671.282227,139.488968 
	C679.068237,139.851654 686.825317,140.832886 694.761841,141.541824 
z"/>
<path fill="#C04750" opacity="1.000000" stroke="none" 
	d="
M769.472534,496.593384 
	C781.192383,510.445587 792.966614,524.252258 804.621399,538.158997 
	C832.976685,571.993103 861.278320,605.872131 889.594788,639.738770 
	C891.565796,642.096069 893.481079,644.499939 895.930237,647.505554 
	C893.670288,647.684143 892.262207,647.892273 890.853943,647.892761 
	C837.024414,647.912292 783.194763,647.880127 729.365479,647.993835 
	C725.993042,648.000916 723.776978,646.893250 721.726257,644.390625 
	C692.495972,608.718567 663.212036,573.090454 633.951294,537.443298 
	C633.438354,536.818359 633.051636,536.089722 632.252075,534.869141 
	C644.528259,524.811401 656.719727,514.823059 669.348083,504.823975 
	C669.784973,504.813202 670.031189,505.040527 669.861328,505.324677 
	C658.033020,515.572632 646.374634,525.536377 634.690613,535.522034 
	C646.273865,549.755798 657.317139,563.370972 668.409424,576.946045 
	C684.767639,596.965637 701.204651,616.921204 717.512329,636.981812 
	C722.360229,642.945374 727.344604,646.456421 736.086548,646.351807 
	C785.897644,645.755920 835.719421,646.058167 885.537598,646.055054 
	C887.434021,646.054932 889.330444,646.054993 892.430969,646.054993 
	C877.012573,627.451294 862.490356,609.835632 847.861816,592.308716 
	C836.811462,579.068909 825.622009,565.945190 814.500183,552.765015 
	C804.024231,540.350342 793.468018,528.002014 783.122253,515.479858 
	C778.187378,509.506897 773.658691,503.198364 769.077942,496.930054 
	C769.209839,496.818237 769.472534,496.593353 769.472534,496.593384 
z"/>
<path fill="#C04750" opacity="1.000000" stroke="none" 
	d="
M708.618774,472.554169 
	C716.443359,465.938416 724.267883,459.322693 732.744995,452.155212 
	C741.686584,462.937897 750.403259,473.449280 759.133545,484.394653 
	C759.147217,484.828674 758.922729,485.061737 758.641479,484.885254 
	C750.997253,476.255402 743.528992,467.890656 736.316162,459.311188 
	C732.722717,455.036926 732.022339,455.011475 727.713562,458.597839 
	C721.667419,463.630219 715.284180,468.257477 708.938660,472.931946 
	C708.832214,472.805847 708.618774,472.554169 708.618774,472.554169 
z"/>
<path fill="#C04750" opacity="1.000000" stroke="none" 
	d="
M669.660461,504.701050 
	C682.351868,493.992157 695.167725,483.395386 708.301208,472.676392 
	C708.618774,472.554169 708.832214,472.805847 708.764893,473.215942 
	C701.378662,479.776764 694.125122,486.007446 686.719299,492.051636 
	C681.259644,496.507477 675.601135,500.719757 670.031189,505.040527 
	C670.031189,505.040527 669.784973,504.813202 669.660461,504.701050 
z"/>
<path fill="#C04750" opacity="1.000000" stroke="none" 
	d="
M759.256470,484.709381 
	C762.644775,488.382904 765.923706,492.175720 769.337646,496.280945 
	C769.472534,496.593353 769.209839,496.818237 768.795044,496.757416 
	C765.227722,492.818298 762.075256,488.940033 758.922729,485.061737 
	C758.922729,485.061737 759.147217,484.828674 759.256470,484.709381 
z"/>
<path fill="#5AAAC7" opacity="1.000000" stroke="none" 
	d="
M716.320068,239.869812 
	C716.341248,239.894699 716.357727,240.116150 716.355591,240.030945 
	C716.353516,239.945724 716.298889,239.844925 716.320068,239.869812 
z"/>
<path fill="#DE1D2B" opacity="1.000000" stroke="none" 
	d="
M758.641479,484.885254 
	C762.075256,488.940033 765.227722,492.818298 768.663147,496.869202 
	C773.658691,503.198364 778.187378,509.506897 783.122253,515.479858 
	C793.468018,528.002014 804.024231,540.350342 814.500183,552.765015 
	C825.622009,565.945190 836.811462,579.068909 847.861816,592.308716 
	C862.490356,609.835632 877.012573,627.451294 892.430969,646.054993 
	C889.330444,646.054993 887.434021,646.054932 885.537598,646.055054 
	C835.719421,646.058167 785.897644,645.755920 736.086548,646.351807 
	C727.344604,646.456421 722.360229,642.945374 717.512329,636.981812 
	C701.204651,616.921204 684.767639,596.965637 668.409424,576.946045 
	C657.317139,563.370972 646.273865,549.755798 634.690613,535.522034 
	C646.374634,525.536377 658.033020,515.572632 669.861328,505.324707 
	C675.601135,500.719757 681.259644,496.507477 686.719299,492.051636 
	C694.125122,486.007446 701.378662,479.776764 708.871338,473.342041 
	C715.284180,468.257477 721.667419,463.630219 727.713562,458.597839 
	C732.022339,455.011475 732.722717,455.036926 736.316162,459.311188 
	C743.528992,467.890656 750.997253,476.255402 758.641479,484.885254 
z"/>
</svg>